<?xml version="1.0" encoding="utf-8"?>
<!-- Generator: Adobe Illustrator 24.1.2, SVG Export Plug-In . SVG Version: 6.00 Build 0)  -->
<svg version="1.1" id="Layer_1" xmlns="http://www.w3.org/2000/svg" xmlns:xlink="http://www.w3.org/1999/xlink" x="0px" y="0px"
	 viewBox="0 0 2042.74 462.86" style="enable-background:new 0 0 2042.74 462.86;" xml:space="preserve">
<style type="text/css">
	.st0{fill:#FFFFFF;}
	.st1{fill:#BFBFBF;}
	.st2{fill:#808282;}
	.st3{fill:#3B3667;}
	.st4{fill:#676496;}
</style>
<g>
	<path class="st1" d="M564.8,190c0,5.92-1.09,11.2-3.27,15.82c-2.18,4.62-5.21,8.54-9.08,11.77c-3.87,3.22-8.43,5.65-13.67,7.28
		c-5.24,1.63-10.89,2.44-16.94,2.44c-4.23,0-8.15-0.36-11.77-1.07c-3.61-0.72-6.84-1.59-9.67-2.64c-2.83-1.04-5.21-2.12-7.13-3.22
		c-1.92-1.11-3.26-2.05-4-2.83c-0.75-0.78-1.3-1.77-1.66-2.98c-0.36-1.2-0.54-2.82-0.54-4.83c0-1.43,0.06-2.62,0.2-3.56
		c0.13-0.94,0.33-1.71,0.59-2.29c0.26-0.59,0.59-0.99,0.98-1.22c0.39-0.23,0.85-0.34,1.37-0.34c0.91,0,2.2,0.55,3.86,1.66
		c1.66,1.11,3.79,2.31,6.4,3.61c2.6,1.3,5.75,2.52,9.42,3.66c3.68,1.14,7.93,1.71,12.74,1.71c3.65,0,6.98-0.49,10.01-1.46
		s5.63-2.36,7.81-4.15c2.18-1.79,3.86-3.99,5.03-6.59c1.17-2.6,1.76-5.57,1.76-8.89c0-3.58-0.81-6.64-2.44-9.18
		c-1.63-2.54-3.78-4.77-6.45-6.69c-2.67-1.92-5.71-3.68-9.13-5.27c-3.42-1.59-6.92-3.22-10.5-4.88c-3.58-1.66-7.06-3.5-10.45-5.52
		c-3.39-2.02-6.41-4.39-9.08-7.13c-2.67-2.73-4.83-5.94-6.49-9.62c-1.66-3.68-2.49-8.09-2.49-13.23c0-5.27,0.96-9.98,2.88-14.11
		c1.92-4.13,4.59-7.6,8.01-10.4c3.42-2.8,7.49-4.93,12.21-6.4c4.72-1.46,9.81-2.2,15.28-2.2c2.8,0,5.62,0.24,8.45,0.73
		s5.5,1.14,8.01,1.95c2.51,0.81,4.74,1.73,6.69,2.73c1.95,1.01,3.24,1.82,3.86,2.44c0.62,0.62,1.03,1.11,1.22,1.46
		c0.2,0.36,0.36,0.81,0.49,1.37c0.13,0.55,0.23,1.22,0.29,2c0.06,0.78,0.1,1.79,0.1,3.03c0,1.17-0.05,2.21-0.15,3.13
		c-0.1,0.91-0.24,1.68-0.44,2.29c-0.2,0.62-0.47,1.07-0.83,1.37c-0.36,0.29-0.77,0.44-1.22,0.44c-0.72,0-1.84-0.45-3.37-1.37
		c-1.53-0.91-3.4-1.94-5.62-3.08c-2.21-1.14-4.83-2.18-7.86-3.13c-3.03-0.94-6.43-1.42-10.21-1.42c-3.52,0-6.58,0.47-9.18,1.42
		c-2.6,0.94-4.75,2.2-6.45,3.76c-1.69,1.56-2.96,3.42-3.81,5.57c-0.85,2.15-1.27,4.43-1.27,6.84c0,3.52,0.81,6.54,2.44,9.08
		c1.63,2.54,3.79,4.79,6.49,6.74c2.7,1.95,5.78,3.74,9.23,5.37c3.45,1.63,6.97,3.27,10.55,4.93c3.58,1.66,7.1,3.48,10.55,5.47
		c3.45,1.99,6.53,4.33,9.23,7.03c2.7,2.7,4.88,5.89,6.54,9.57C563.97,180.64,564.8,184.99,564.8,190z"/>
	<path class="st1" d="M646.35,209.63c0,1.11-0.03,2.07-0.1,2.88c-0.07,0.81-0.18,1.5-0.34,2.05c-0.16,0.55-0.36,1.04-0.59,1.46
		c-0.23,0.42-0.75,1.04-1.56,1.86c-0.81,0.81-2.2,1.82-4.15,3.03c-1.95,1.21-4.15,2.28-6.59,3.22c-2.44,0.94-5.09,1.71-7.96,2.29
		c-2.87,0.59-5.83,0.88-8.89,0.88c-6.32,0-11.91-1.04-16.8-3.13s-8.97-5.13-12.26-9.13c-3.29-4-5.8-8.92-7.52-14.75
		c-1.73-5.83-2.59-12.55-2.59-20.17c0-8.66,1.06-16.1,3.17-22.31c2.11-6.22,5.01-11.31,8.69-15.28c3.68-3.97,8.01-6.92,12.99-8.84
		c4.98-1.92,10.37-2.88,16.16-2.88c2.8,0,5.52,0.26,8.15,0.78c2.64,0.52,5.06,1.21,7.28,2.05c2.21,0.85,4.18,1.82,5.91,2.93
		c1.72,1.11,2.98,2.05,3.76,2.83s1.32,1.4,1.61,1.86c0.29,0.46,0.54,0.99,0.73,1.61c0.2,0.62,0.33,1.32,0.39,2.1
		c0.06,0.78,0.1,1.76,0.1,2.93c0,2.54-0.29,4.31-0.88,5.32c-0.59,1.01-1.3,1.51-2.15,1.51c-0.98,0-2.1-0.54-3.37-1.61
		s-2.88-2.26-4.83-3.56c-1.95-1.3-4.31-2.49-7.08-3.56c-2.77-1.07-6.04-1.61-9.81-1.61c-7.75,0-13.69,2.98-17.82,8.94
		c-4.14,5.96-6.2,14.6-6.2,25.93c0,5.66,0.54,10.63,1.61,14.89c1.07,4.26,2.65,7.83,4.74,10.69c2.08,2.87,4.64,5,7.67,6.4
		c3.03,1.4,6.49,2.1,10.4,2.1c3.71,0,6.97-0.59,9.77-1.76c2.8-1.17,5.22-2.46,7.28-3.86c2.05-1.4,3.77-2.67,5.18-3.81
		c1.4-1.14,2.49-1.71,3.27-1.71c0.45,0,0.85,0.13,1.17,0.39c0.33,0.26,0.6,0.7,0.83,1.32c0.23,0.62,0.39,1.4,0.49,2.34
		C646.3,207.21,646.35,208.33,646.35,209.63z"/>
	<path class="st1" d="M681.9,105.43c0,3.78-0.72,6.35-2.15,7.71c-1.43,1.37-4.07,2.05-7.91,2.05c-3.78,0-6.36-0.67-7.76-2
		c-1.4-1.33-2.1-3.86-2.1-7.57c0-3.77,0.72-6.35,2.15-7.71c1.43-1.37,4.07-2.05,7.91-2.05c3.77,0,6.36,0.67,7.76,2
		C681.2,99.2,681.9,101.72,681.9,105.43z M680.05,223.01c0,0.52-0.13,0.96-0.39,1.32c-0.26,0.36-0.68,0.67-1.27,0.93
		s-1.4,0.46-2.44,0.59c-1.04,0.13-2.38,0.2-4,0.2c-1.56,0-2.87-0.07-3.91-0.2c-1.04-0.13-1.87-0.33-2.49-0.59
		c-0.62-0.26-1.04-0.57-1.27-0.93c-0.23-0.36-0.34-0.8-0.34-1.32v-87.89c0-0.45,0.11-0.88,0.34-1.27c0.23-0.39,0.65-0.72,1.27-0.98
		c0.62-0.26,1.45-0.45,2.49-0.59c1.04-0.13,2.34-0.2,3.91-0.2c1.63,0,2.96,0.07,4,0.2c1.04,0.13,1.86,0.33,2.44,0.59
		c0.59,0.26,1.01,0.59,1.27,0.98c0.26,0.39,0.39,0.81,0.39,1.27V223.01z"/>
	<path class="st1" d="M781.03,175.25c0,2.54-0.64,4.35-1.91,5.42c-1.28,1.07-2.73,1.61-4.37,1.61h-57.88
		c0,4.88,0.49,9.28,1.47,13.18c0.98,3.91,2.62,7.26,4.91,10.06c2.29,2.8,5.27,4.95,8.93,6.45c3.66,1.5,8.15,2.25,13.44,2.25
		c4.19,0,7.92-0.34,11.19-1.03s6.1-1.45,8.49-2.29c2.39-0.85,4.35-1.61,5.89-2.29s2.7-1.03,3.48-1.03c0.46,0,0.87,0.11,1.23,0.34
		c0.36,0.23,0.64,0.57,0.83,1.03c0.2,0.46,0.34,1.09,0.44,1.9c0.1,0.81,0.15,1.81,0.15,2.98c0,0.85-0.03,1.58-0.1,2.2
		c-0.07,0.62-0.15,1.17-0.24,1.66s-0.26,0.93-0.49,1.32c-0.23,0.39-0.52,0.77-0.88,1.12c-0.36,0.36-1.42,0.94-3.17,1.76
		c-1.76,0.81-4.04,1.61-6.84,2.39c-2.8,0.78-6.04,1.48-9.72,2.1c-3.68,0.62-7.6,0.93-11.77,0.93c-7.23,0-13.56-1.01-18.99-3.03
		c-5.44-2.02-10.01-5.01-13.72-8.98c-3.71-3.97-6.51-8.95-8.4-14.94c-1.89-5.99-2.83-12.96-2.83-20.9c0-7.55,0.98-14.34,2.93-20.36
		c1.95-6.02,4.77-11.13,8.45-15.33c3.68-4.2,8.12-7.42,13.33-9.67c5.21-2.25,11.04-3.37,17.48-3.37c6.9,0,12.78,1.11,17.63,3.32
		c4.85,2.21,8.84,5.19,11.96,8.94c3.13,3.74,5.42,8.14,6.88,13.18c1.46,5.05,2.2,10.43,2.2,16.16V175.25z M764.82,170.47
		c0.2-8.46-1.69-15.1-5.65-19.92c-3.96-4.82-9.84-7.23-17.64-7.23c-4,0-7.5,0.75-10.51,2.25c-3.01,1.5-5.54,3.48-7.57,5.96
		c-2.03,2.48-3.6,5.36-4.72,8.64c-1.11,3.29-1.73,6.72-1.87,10.3H764.82z"/>
	<path class="st1" d="M877.43,223.01c0,0.52-0.13,0.96-0.39,1.32c-0.26,0.36-0.68,0.67-1.27,0.93s-1.4,0.46-2.44,0.59
		c-1.04,0.13-2.34,0.2-3.91,0.2c-1.63,0-2.96-0.07-4-0.2c-1.04-0.13-1.86-0.33-2.44-0.59s-1.01-0.57-1.27-0.93
		c-0.26-0.36-0.39-0.8-0.39-1.32v-51.46c0-5.01-0.39-9.05-1.17-12.11c-0.78-3.06-1.92-5.7-3.42-7.91c-1.5-2.21-3.43-3.91-5.81-5.08
		c-2.38-1.17-5.13-1.76-8.25-1.76c-4.04,0-8.07,1.43-12.11,4.3c-4.04,2.87-8.27,7.06-12.7,12.6v61.43c0,0.52-0.13,0.96-0.39,1.32
		c-0.26,0.36-0.68,0.67-1.27,0.93s-1.4,0.46-2.44,0.59c-1.04,0.13-2.38,0.2-4,0.2c-1.56,0-2.87-0.07-3.91-0.2
		c-1.04-0.13-1.87-0.33-2.49-0.59c-0.62-0.26-1.04-0.57-1.27-0.93c-0.23-0.36-0.34-0.8-0.34-1.32v-87.89c0-0.52,0.1-0.96,0.29-1.32
		c0.2-0.36,0.59-0.68,1.17-0.98s1.33-0.49,2.25-0.59c0.91-0.1,2.11-0.15,3.61-0.15c1.43,0,2.62,0.05,3.56,0.15
		c0.94,0.1,1.68,0.29,2.2,0.59c0.52,0.29,0.89,0.62,1.12,0.98c0.23,0.36,0.34,0.8,0.34,1.32v11.62c4.95-5.53,9.88-9.59,14.79-12.16
		c4.92-2.57,9.88-3.86,14.89-3.86c5.86,0,10.79,0.99,14.79,2.98c4,1.99,7.24,4.64,9.72,7.96c2.47,3.32,4.25,7.21,5.32,11.67
		c1.07,4.46,1.61,9.81,1.61,16.06V223.01z"/>
	<path class="st1" d="M966.21,209.63c0,1.11-0.03,2.07-0.1,2.88c-0.07,0.81-0.18,1.5-0.34,2.05c-0.16,0.55-0.36,1.04-0.59,1.46
		c-0.23,0.42-0.75,1.04-1.56,1.86c-0.81,0.81-2.2,1.82-4.15,3.03c-1.95,1.21-4.15,2.28-6.59,3.22c-2.44,0.94-5.09,1.71-7.96,2.29
		c-2.87,0.59-5.83,0.88-8.89,0.88c-6.32,0-11.91-1.04-16.8-3.13s-8.97-5.13-12.26-9.13c-3.29-4-5.8-8.92-7.52-14.75
		c-1.73-5.83-2.59-12.55-2.59-20.17c0-8.66,1.06-16.1,3.17-22.31c2.11-6.22,5.01-11.31,8.69-15.28c3.68-3.97,8.01-6.92,12.99-8.84
		c4.98-1.92,10.37-2.88,16.16-2.88c2.8,0,5.52,0.26,8.15,0.78c2.64,0.52,5.06,1.21,7.28,2.05c2.21,0.85,4.18,1.82,5.91,2.93
		c1.72,1.11,2.98,2.05,3.76,2.83s1.32,1.4,1.61,1.86c0.29,0.46,0.54,0.99,0.73,1.61c0.2,0.62,0.33,1.32,0.39,2.1
		c0.06,0.78,0.1,1.76,0.1,2.93c0,2.54-0.29,4.31-0.88,5.32c-0.59,1.01-1.3,1.51-2.15,1.51c-0.98,0-2.1-0.54-3.37-1.61
		s-2.88-2.26-4.83-3.56c-1.95-1.3-4.31-2.49-7.08-3.56c-2.77-1.07-6.04-1.61-9.81-1.61c-7.75,0-13.69,2.98-17.82,8.94
		c-4.14,5.96-6.2,14.6-6.2,25.93c0,5.66,0.54,10.63,1.61,14.89c1.07,4.26,2.65,7.83,4.74,10.69c2.08,2.87,4.64,5,7.67,6.4
		c3.03,1.4,6.49,2.1,10.4,2.1c3.71,0,6.97-0.59,9.77-1.76c2.8-1.17,5.22-2.46,7.28-3.86c2.05-1.4,3.77-2.67,5.18-3.81
		c1.4-1.14,2.49-1.71,3.27-1.71c0.46,0,0.85,0.13,1.17,0.39c0.33,0.26,0.6,0.7,0.83,1.32c0.23,0.62,0.39,1.4,0.49,2.34
		C966.16,207.21,966.21,208.33,966.21,209.63z"/>
	<path class="st1" d="M1058.79,175.25c0,2.54-0.64,4.35-1.91,5.42c-1.28,1.07-2.73,1.61-4.37,1.61h-57.88
		c0,4.88,0.49,9.28,1.47,13.18c0.98,3.91,2.62,7.26,4.91,10.06c2.29,2.8,5.27,4.95,8.93,6.45c3.66,1.5,8.15,2.25,13.44,2.25
		c4.19,0,7.92-0.34,11.19-1.03s6.1-1.45,8.49-2.29c2.39-0.85,4.35-1.61,5.89-2.29s2.7-1.03,3.49-1.03c0.46,0,0.86,0.11,1.22,0.34
		c0.36,0.23,0.64,0.57,0.83,1.03c0.2,0.46,0.34,1.09,0.44,1.9c0.1,0.81,0.15,1.81,0.15,2.98c0,0.85-0.03,1.58-0.1,2.2
		c-0.07,0.62-0.15,1.17-0.24,1.66s-0.26,0.93-0.49,1.32c-0.23,0.39-0.52,0.77-0.88,1.12c-0.36,0.36-1.42,0.94-3.17,1.76
		c-1.76,0.81-4.04,1.61-6.84,2.39c-2.8,0.78-6.04,1.48-9.72,2.1c-3.68,0.62-7.6,0.93-11.77,0.93c-7.23,0-13.56-1.01-18.99-3.03
		c-5.44-2.02-10.01-5.01-13.72-8.98c-3.71-3.97-6.51-8.95-8.4-14.94c-1.89-5.99-2.83-12.96-2.83-20.9c0-7.55,0.98-14.34,2.93-20.36
		c1.95-6.02,4.77-11.13,8.45-15.33c3.68-4.2,8.12-7.42,13.33-9.67c5.21-2.25,11.04-3.37,17.48-3.37c6.9,0,12.78,1.11,17.63,3.32
		c4.85,2.21,8.84,5.19,11.96,8.94c3.13,3.74,5.42,8.14,6.88,13.18c1.46,5.05,2.2,10.43,2.2,16.16V175.25z M1042.58,170.47
		c0.2-8.46-1.69-15.1-5.65-19.92c-3.96-4.82-9.84-7.23-17.64-7.23c-4,0-7.5,0.75-10.51,2.25c-3.01,1.5-5.54,3.48-7.57,5.96
		c-2.03,2.48-3.6,5.36-4.72,8.64c-1.11,3.29-1.74,6.72-1.87,10.3H1042.58z"/>
	<path class="st1" d="M1166.62,216.56c0,1.89-0.13,3.39-0.39,4.49c-0.26,1.11-0.65,1.92-1.17,2.44c-0.52,0.52-1.3,1.01-2.34,1.46
		c-1.04,0.46-2.23,0.83-3.56,1.12c-1.33,0.29-2.75,0.54-4.25,0.73c-1.5,0.2-3,0.29-4.49,0.29c-4.56,0-8.46-0.6-11.72-1.81
		c-3.26-1.2-5.92-3.03-8.01-5.47c-2.08-2.44-3.6-5.53-4.54-9.28c-0.94-3.74-1.42-8.15-1.42-13.23v-51.37h-12.3
		c-0.98,0-1.76-0.52-2.34-1.56c-0.59-1.04-0.88-2.73-0.88-5.08c0-1.24,0.08-2.28,0.24-3.13c0.16-0.85,0.37-1.55,0.63-2.1
		c0.26-0.55,0.6-0.94,1.03-1.17c0.42-0.23,0.89-0.34,1.42-0.34h12.21v-20.9c0-0.45,0.11-0.88,0.34-1.27
		c0.23-0.39,0.65-0.73,1.27-1.03c0.62-0.29,1.45-0.5,2.49-0.63c1.04-0.13,2.34-0.2,3.91-0.2c1.63,0,2.96,0.07,4,0.2
		c1.04,0.13,1.86,0.34,2.44,0.63s1.01,0.63,1.27,1.03c0.26,0.39,0.39,0.81,0.39,1.27v20.9h22.56c0.52,0,0.98,0.11,1.37,0.34
		c0.39,0.23,0.73,0.62,1.03,1.17c0.29,0.55,0.5,1.25,0.63,2.1c0.13,0.85,0.2,1.89,0.2,3.13c0,2.34-0.29,4.04-0.88,5.08
		c-0.59,1.04-1.37,1.56-2.34,1.56h-22.56v49.02c0,6.05,0.89,10.63,2.69,13.72c1.79,3.09,5,4.64,9.62,4.64c1.5,0,2.83-0.15,4-0.44
		s2.21-0.6,3.13-0.93c0.91-0.33,1.69-0.63,2.34-0.93c0.65-0.29,1.24-0.44,1.76-0.44c0.33,0,0.63,0.08,0.93,0.24
		c0.29,0.16,0.52,0.47,0.68,0.93c0.16,0.46,0.31,1.07,0.44,1.86C1166.56,214.42,1166.62,215.39,1166.62,216.56z"/>
	<path class="st1" d="M1263.9,178.09c0,7.16-0.94,13.75-2.83,19.78c-1.89,6.02-4.7,11.21-8.45,15.58
		c-3.74,4.36-8.43,7.76-14.06,10.21c-5.63,2.44-12.16,3.66-19.58,3.66c-7.23,0-13.53-1.07-18.9-3.22s-9.85-5.27-13.43-9.38
		c-3.58-4.1-6.25-9.08-8.01-14.94s-2.64-12.5-2.64-19.92c0-7.16,0.93-13.75,2.78-19.78c1.86-6.02,4.65-11.21,8.4-15.58
		c3.74-4.36,8.41-7.75,14.01-10.16c5.6-2.41,12.14-3.61,19.63-3.61c7.23,0,13.53,1.07,18.9,3.22s9.85,5.27,13.43,9.38
		c3.58,4.1,6.27,9.08,8.06,14.94C1263,164.12,1263.9,170.73,1263.9,178.09z M1247.2,179.16c0-4.75-0.44-9.24-1.33-13.48
		c-0.89-4.23-2.35-7.94-4.39-11.13c-2.04-3.19-4.8-5.71-8.28-7.57c-3.48-1.86-7.82-2.78-13.01-2.78c-4.8,0-8.92,0.85-12.37,2.54
		c-3.45,1.69-6.29,4.09-8.52,7.18c-2.23,3.09-3.89,6.75-4.98,10.99c-1.08,4.23-1.63,8.85-1.63,13.87c0,4.82,0.44,9.34,1.33,13.57
		c0.89,4.23,2.37,7.93,4.43,11.08c2.07,3.16,4.84,5.66,8.33,7.52s7.82,2.78,13.01,2.78c4.73,0,8.83-0.85,12.32-2.54
		c3.48-1.69,6.34-4.07,8.57-7.13c2.23-3.06,3.88-6.71,4.93-10.94C1246.67,188.89,1247.2,184.24,1247.2,179.16z"/>
	<path class="st1" d="M1410.4,189.22c0,3.97-0.5,7.63-1.51,10.99c-1.01,3.35-2.43,6.36-4.25,9.03c-1.82,2.67-4.02,5.01-6.59,7.03
		c-2.57,2.02-5.47,3.71-8.69,5.08s-6.67,2.39-10.35,3.08c-3.68,0.68-7.89,1.03-12.65,1.03h-33.01c-1.5,0-2.91-0.5-4.25-1.51
		c-1.33-1.01-2-2.78-2-5.32v-112.7c0-2.54,0.67-4.31,2-5.32c1.33-1.01,2.75-1.51,4.25-1.51h28.71c7.55,0,13.74,0.72,18.55,2.15
		c4.82,1.43,8.84,3.52,12.06,6.25s5.65,6.09,7.28,10.06c1.63,3.97,2.44,8.46,2.44,13.48c0,3-0.36,5.86-1.07,8.59
		c-0.72,2.73-1.77,5.26-3.17,7.57c-1.4,2.31-3.16,4.38-5.27,6.2c-2.12,1.82-4.54,3.32-7.28,4.49c3.45,0.65,6.67,1.84,9.67,3.56
		c2.99,1.73,5.62,3.92,7.86,6.59c2.25,2.67,4.02,5.8,5.32,9.38C1409.75,180.98,1410.4,184.92,1410.4,189.22z M1385.11,132.68
		c0-3.06-0.42-5.83-1.27-8.3c-0.84-2.47-2.18-4.57-4-6.3c-1.82-1.72-4.19-3.04-7.11-3.96c-2.92-0.91-6.79-1.37-11.59-1.37h-17.34
		v40.92h19.09c4.35,0,7.86-0.57,10.52-1.71c2.66-1.14,4.87-2.67,6.63-4.59c1.75-1.92,3.04-4.17,3.85-6.74
		C1384.7,138.06,1385.11,135.41,1385.11,132.68z M1392.72,190.2c0-3.78-0.6-7.1-1.8-9.96c-1.2-2.86-2.96-5.27-5.26-7.23
		c-2.31-1.95-5.2-3.43-8.67-4.44c-3.48-1.01-7.85-1.51-13.11-1.51h-20.08v44.53h24.37c3.83,0,7.18-0.46,10.04-1.37
		c2.86-0.91,5.38-2.26,7.55-4.05c2.18-1.79,3.88-4.02,5.12-6.69C1392.11,196.8,1392.72,193.71,1392.72,190.2z"/>
	<path class="st1" d="M1505.53,223.01c0,0.52-0.11,0.96-0.34,1.32c-0.23,0.36-0.63,0.67-1.22,0.93s-1.35,0.46-2.29,0.59
		c-0.94,0.13-2.1,0.2-3.47,0.2c-1.5,0-2.72-0.07-3.66-0.2c-0.94-0.13-1.69-0.33-2.25-0.59c-0.55-0.26-0.93-0.57-1.12-0.93
		c-0.2-0.36-0.29-0.8-0.29-1.32v-11.62c-5.01,5.53-9.96,9.57-14.84,12.11s-9.83,3.81-14.84,3.81c-5.86,0-10.79-0.98-14.79-2.93
		s-7.24-4.61-9.72-7.96c-2.47-3.35-4.25-7.26-5.32-11.72c-1.07-4.46-1.61-9.88-1.61-16.26v-53.32c0-0.52,0.11-0.96,0.34-1.32
		c0.23-0.36,0.67-0.68,1.32-0.98c0.65-0.29,1.5-0.49,2.54-0.59c1.04-0.1,2.34-0.15,3.91-0.15s2.86,0.05,3.91,0.15
		c1.04,0.1,1.87,0.29,2.49,0.59c0.62,0.29,1.06,0.62,1.32,0.98c0.26,0.36,0.39,0.8,0.39,1.32v51.17c0,5.14,0.37,9.26,1.12,12.35
		c0.75,3.09,1.89,5.73,3.42,7.91c1.53,2.18,3.47,3.87,5.81,5.08c2.34,1.21,5.08,1.81,8.2,1.81c4.04,0,8.06-1.43,12.06-4.3
		c4-2.86,8.25-7.06,12.74-12.6v-61.43c0-0.52,0.11-0.96,0.34-1.32c0.23-0.36,0.67-0.68,1.32-0.98c0.65-0.29,1.48-0.49,2.49-0.59
		c1.01-0.1,2.33-0.15,3.96-0.15c1.56,0,2.86,0.05,3.91,0.15c1.04,0.1,1.86,0.29,2.44,0.59s1.03,0.62,1.32,0.98
		c0.29,0.36,0.44,0.8,0.44,1.32V223.01z"/>
	<path class="st1" d="M1586.69,199.08c0,4.49-0.83,8.5-2.49,12.01s-4.02,6.48-7.08,8.89c-3.06,2.41-6.71,4.23-10.94,5.47
		c-4.23,1.24-8.89,1.86-13.96,1.86c-3.13,0-6.1-0.24-8.94-0.73s-5.37-1.11-7.62-1.86s-4.15-1.53-5.71-2.34
		c-1.56-0.81-2.7-1.55-3.42-2.2c-0.72-0.65-1.24-1.56-1.56-2.73c-0.33-1.17-0.49-2.77-0.49-4.79c0-1.24,0.06-2.28,0.2-3.13
		c0.13-0.85,0.29-1.53,0.49-2.05c0.2-0.52,0.47-0.89,0.83-1.12c0.36-0.23,0.76-0.34,1.22-0.34c0.72,0,1.77,0.44,3.17,1.32
		c1.4,0.88,3.13,1.84,5.18,2.88c2.05,1.04,4.48,2,7.28,2.88c2.8,0.88,6.02,1.32,9.67,1.32c2.73,0,5.21-0.29,7.42-0.88
		c2.21-0.59,4.13-1.45,5.76-2.59c1.63-1.14,2.88-2.59,3.76-4.35s1.32-3.84,1.32-6.25c0-2.47-0.63-4.56-1.9-6.25
		c-1.27-1.69-2.95-3.19-5.03-4.49c-2.08-1.3-4.43-2.46-7.03-3.47c-2.6-1.01-5.29-2.07-8.06-3.17c-2.77-1.11-5.47-2.36-8.11-3.76
		c-2.64-1.4-5-3.11-7.08-5.13c-2.08-2.02-3.76-4.43-5.03-7.23c-1.27-2.8-1.9-6.15-1.9-10.06c0-3.45,0.67-6.75,2-9.91
		c1.33-3.16,3.34-5.92,6.01-8.3c2.67-2.38,6.01-4.28,10.01-5.71c4-1.43,8.67-2.15,14.01-2.15c2.34,0,4.69,0.2,7.03,0.59
		s4.46,0.88,6.35,1.46c1.89,0.59,3.5,1.22,4.83,1.9c1.33,0.68,2.34,1.29,3.03,1.81c0.68,0.52,1.14,0.98,1.37,1.37
		c0.23,0.39,0.39,0.83,0.49,1.32s0.2,1.09,0.29,1.81c0.1,0.72,0.15,1.6,0.15,2.64c0,1.11-0.05,2.07-0.15,2.88
		c-0.1,0.81-0.26,1.48-0.49,2c-0.23,0.52-0.5,0.9-0.83,1.12c-0.33,0.23-0.68,0.34-1.07,0.34c-0.59,0-1.43-0.36-2.54-1.07
		c-1.11-0.72-2.54-1.48-4.3-2.29c-1.76-0.81-3.83-1.58-6.2-2.29c-2.38-0.72-5.09-1.07-8.15-1.07c-2.73,0-5.14,0.31-7.23,0.93
		c-2.08,0.62-3.79,1.5-5.13,2.64c-1.33,1.14-2.34,2.49-3.03,4.05s-1.03,3.26-1.03,5.08c0,2.54,0.65,4.67,1.95,6.4
		c1.3,1.73,2.99,3.24,5.08,4.54c2.08,1.3,4.46,2.48,7.13,3.52c2.67,1.04,5.39,2.12,8.15,3.22c2.77,1.11,5.5,2.34,8.2,3.71
		c2.7,1.37,5.09,3.03,7.18,4.98c2.08,1.95,3.76,4.3,5.03,7.03S1586.69,195.31,1586.69,199.08z"/>
	<path class="st1" d="M1623.9,105.43c0,3.78-0.72,6.35-2.15,7.71c-1.43,1.37-4.07,2.05-7.91,2.05c-3.78,0-6.36-0.67-7.76-2
		c-1.4-1.33-2.1-3.86-2.1-7.57c0-3.77,0.72-6.35,2.15-7.71c1.43-1.37,4.07-2.05,7.91-2.05c3.78,0,6.36,0.67,7.76,2
		C1623.2,99.2,1623.9,101.72,1623.9,105.43z M1622.05,223.01c0,0.52-0.13,0.96-0.39,1.32c-0.26,0.36-0.68,0.67-1.27,0.93
		s-1.4,0.46-2.44,0.59c-1.04,0.13-2.38,0.2-4,0.2c-1.56,0-2.87-0.07-3.91-0.2c-1.04-0.13-1.87-0.33-2.49-0.59
		c-0.62-0.26-1.04-0.57-1.27-0.93c-0.23-0.36-0.34-0.8-0.34-1.32v-87.89c0-0.45,0.11-0.88,0.34-1.27c0.23-0.39,0.65-0.72,1.27-0.98
		c0.62-0.26,1.45-0.45,2.49-0.59c1.04-0.13,2.34-0.2,3.91-0.2c1.63,0,2.96,0.07,4,0.2c1.04,0.13,1.86,0.33,2.44,0.59
		c0.59,0.26,1.01,0.59,1.27,0.98c0.26,0.39,0.39,0.81,0.39,1.27V223.01z"/>
	<path class="st1" d="M1723.72,223.01c0,0.52-0.13,0.96-0.39,1.32c-0.26,0.36-0.68,0.67-1.27,0.93s-1.4,0.46-2.44,0.59
		c-1.04,0.13-2.34,0.2-3.91,0.2c-1.63,0-2.96-0.07-4-0.2c-1.04-0.13-1.86-0.33-2.44-0.59s-1.01-0.57-1.27-0.93
		c-0.26-0.36-0.39-0.8-0.39-1.32v-51.46c0-5.01-0.39-9.05-1.17-12.11c-0.78-3.06-1.92-5.7-3.42-7.91c-1.5-2.21-3.43-3.91-5.81-5.08
		c-2.38-1.17-5.13-1.76-8.25-1.76c-4.04,0-8.07,1.43-12.11,4.3c-4.04,2.87-8.27,7.06-12.7,12.6v61.43c0,0.52-0.13,0.96-0.39,1.32
		c-0.26,0.36-0.68,0.67-1.27,0.93s-1.4,0.46-2.44,0.59c-1.04,0.13-2.38,0.2-4,0.2c-1.56,0-2.87-0.07-3.91-0.2
		c-1.04-0.13-1.87-0.33-2.49-0.59c-0.62-0.26-1.04-0.57-1.27-0.93c-0.23-0.36-0.34-0.8-0.34-1.32v-87.89c0-0.52,0.1-0.96,0.29-1.32
		c0.2-0.36,0.59-0.68,1.17-0.98s1.33-0.49,2.25-0.59c0.91-0.1,2.12-0.15,3.61-0.15c1.43,0,2.62,0.05,3.56,0.15
		c0.94,0.1,1.68,0.29,2.2,0.59c0.52,0.29,0.89,0.62,1.12,0.98c0.23,0.36,0.34,0.8,0.34,1.32v11.62c4.95-5.53,9.88-9.59,14.79-12.16
		c4.92-2.57,9.88-3.86,14.89-3.86c5.86,0,10.79,0.99,14.79,2.98c4,1.99,7.24,4.64,9.72,7.96c2.47,3.32,4.25,7.21,5.32,11.67
		c1.07,4.46,1.61,9.81,1.61,16.06V223.01z"/>
	<path class="st1" d="M1824.31,175.25c0,2.54-0.64,4.35-1.91,5.42c-1.28,1.07-2.73,1.61-4.37,1.61h-57.88
		c0,4.88,0.49,9.28,1.47,13.18c0.98,3.91,2.62,7.26,4.91,10.06c2.29,2.8,5.27,4.95,8.93,6.45c3.66,1.5,8.15,2.25,13.44,2.25
		c4.19,0,7.92-0.34,11.19-1.03s6.1-1.45,8.49-2.29c2.39-0.85,4.35-1.61,5.89-2.29s2.7-1.03,3.49-1.03c0.46,0,0.86,0.11,1.22,0.34
		c0.36,0.23,0.64,0.57,0.83,1.03c0.2,0.46,0.34,1.09,0.44,1.9c0.1,0.81,0.15,1.81,0.15,2.98c0,0.85-0.03,1.58-0.1,2.2
		c-0.07,0.62-0.15,1.17-0.24,1.66s-0.26,0.93-0.49,1.32c-0.23,0.39-0.52,0.77-0.88,1.12c-0.36,0.36-1.42,0.94-3.17,1.76
		c-1.76,0.81-4.04,1.61-6.84,2.39c-2.8,0.78-6.04,1.48-9.72,2.1c-3.68,0.62-7.6,0.93-11.77,0.93c-7.23,0-13.56-1.01-18.99-3.03
		c-5.44-2.02-10.01-5.01-13.72-8.98c-3.71-3.97-6.51-8.95-8.4-14.94c-1.89-5.99-2.83-12.96-2.83-20.9c0-7.55,0.98-14.34,2.93-20.36
		c1.95-6.02,4.77-11.13,8.45-15.33c3.68-4.2,8.12-7.42,13.33-9.67c5.21-2.25,11.04-3.37,17.48-3.37c6.9,0,12.78,1.11,17.63,3.32
		c4.85,2.21,8.84,5.19,11.96,8.94c3.13,3.74,5.42,8.14,6.88,13.18c1.46,5.05,2.2,10.43,2.2,16.16V175.25z M1808.1,170.47
		c0.2-8.46-1.69-15.1-5.65-19.92c-3.96-4.82-9.84-7.23-17.64-7.23c-4,0-7.5,0.75-10.51,2.25c-3.01,1.5-5.54,3.48-7.57,5.96
		c-2.03,2.48-3.6,5.36-4.72,8.64c-1.11,3.29-1.74,6.72-1.87,10.3H1808.1z"/>
	<path class="st1" d="M1900.2,199.08c0,4.49-0.83,8.5-2.49,12.01s-4.02,6.48-7.08,8.89c-3.06,2.41-6.71,4.23-10.94,5.47
		c-4.23,1.24-8.89,1.86-13.96,1.86c-3.13,0-6.1-0.24-8.94-0.73s-5.37-1.11-7.62-1.86s-4.15-1.53-5.71-2.34
		c-1.56-0.81-2.7-1.55-3.42-2.2c-0.72-0.65-1.24-1.56-1.56-2.73c-0.33-1.17-0.49-2.77-0.49-4.79c0-1.24,0.06-2.28,0.2-3.13
		c0.13-0.85,0.29-1.53,0.49-2.05c0.2-0.52,0.47-0.89,0.83-1.12c0.36-0.23,0.76-0.34,1.22-0.34c0.72,0,1.77,0.44,3.17,1.32
		c1.4,0.88,3.13,1.84,5.18,2.88c2.05,1.04,4.48,2,7.28,2.88c2.8,0.88,6.02,1.32,9.67,1.32c2.73,0,5.21-0.29,7.42-0.88
		c2.21-0.59,4.13-1.45,5.76-2.59c1.63-1.14,2.88-2.59,3.76-4.35s1.32-3.84,1.32-6.25c0-2.47-0.63-4.56-1.9-6.25
		c-1.27-1.69-2.95-3.19-5.03-4.49c-2.08-1.3-4.43-2.46-7.03-3.47c-2.6-1.01-5.29-2.07-8.06-3.17c-2.77-1.11-5.47-2.36-8.11-3.76
		c-2.64-1.4-5-3.11-7.08-5.13c-2.08-2.02-3.76-4.43-5.03-7.23c-1.27-2.8-1.9-6.15-1.9-10.06c0-3.45,0.67-6.75,2-9.91
		c1.33-3.16,3.34-5.92,6.01-8.3c2.67-2.38,6.01-4.28,10.01-5.71c4-1.43,8.67-2.15,14.01-2.15c2.34,0,4.69,0.2,7.03,0.59
		s4.46,0.88,6.35,1.46c1.89,0.59,3.5,1.22,4.83,1.9c1.33,0.68,2.34,1.29,3.03,1.81c0.68,0.52,1.14,0.98,1.37,1.37
		c0.23,0.39,0.39,0.83,0.49,1.32s0.2,1.09,0.29,1.81c0.1,0.72,0.15,1.6,0.15,2.64c0,1.11-0.05,2.07-0.15,2.88
		c-0.1,0.81-0.26,1.48-0.49,2c-0.23,0.52-0.5,0.9-0.83,1.12c-0.33,0.23-0.68,0.34-1.07,0.34c-0.59,0-1.43-0.36-2.54-1.07
		c-1.11-0.72-2.54-1.48-4.3-2.29c-1.76-0.81-3.83-1.58-6.2-2.29c-2.38-0.72-5.09-1.07-8.15-1.07c-2.73,0-5.14,0.31-7.23,0.93
		c-2.08,0.62-3.79,1.5-5.13,2.64c-1.33,1.14-2.34,2.49-3.03,4.05s-1.03,3.26-1.03,5.08c0,2.54,0.65,4.67,1.95,6.4
		c1.3,1.73,2.99,3.24,5.08,4.54c2.08,1.3,4.46,2.48,7.13,3.52c2.67,1.04,5.39,2.12,8.15,3.22c2.77,1.11,5.5,2.34,8.2,3.71
		c2.7,1.37,5.09,3.03,7.18,4.98c2.08,1.95,3.76,4.3,5.03,7.03S1900.2,195.31,1900.2,199.08z"/>
	<path class="st1" d="M1974.62,199.08c0,4.49-0.83,8.5-2.49,12.01s-4.02,6.48-7.08,8.89c-3.06,2.41-6.71,4.23-10.94,5.47
		c-4.23,1.24-8.89,1.86-13.96,1.86c-3.13,0-6.1-0.24-8.94-0.73s-5.37-1.11-7.62-1.86s-4.15-1.53-5.71-2.34
		c-1.56-0.81-2.7-1.55-3.42-2.2c-0.72-0.65-1.24-1.56-1.56-2.73c-0.33-1.17-0.49-2.77-0.49-4.79c0-1.24,0.06-2.28,0.2-3.13
		c0.13-0.85,0.29-1.53,0.49-2.05c0.2-0.52,0.47-0.89,0.83-1.12c0.36-0.23,0.76-0.34,1.22-0.34c0.72,0,1.77,0.44,3.17,1.32
		c1.4,0.88,3.13,1.84,5.18,2.88c2.05,1.04,4.48,2,7.28,2.88c2.8,0.88,6.02,1.32,9.67,1.32c2.73,0,5.21-0.29,7.42-0.88
		c2.21-0.59,4.13-1.45,5.76-2.59c1.63-1.14,2.88-2.59,3.76-4.35s1.32-3.84,1.32-6.25c0-2.47-0.63-4.56-1.9-6.25
		c-1.27-1.69-2.95-3.19-5.03-4.49c-2.08-1.3-4.43-2.46-7.03-3.47c-2.6-1.01-5.29-2.07-8.06-3.17c-2.77-1.11-5.47-2.36-8.11-3.76
		c-2.64-1.4-5-3.11-7.08-5.13c-2.08-2.02-3.76-4.43-5.03-7.23c-1.27-2.8-1.9-6.15-1.9-10.06c0-3.45,0.67-6.75,2-9.91
		c1.33-3.16,3.34-5.92,6.01-8.3c2.67-2.38,6.01-4.28,10.01-5.71c4-1.43,8.67-2.15,14.01-2.15c2.34,0,4.69,0.2,7.03,0.59
		s4.46,0.88,6.35,1.46c1.89,0.59,3.5,1.22,4.83,1.9c1.33,0.68,2.34,1.29,3.03,1.81c0.68,0.52,1.14,0.98,1.37,1.37
		c0.23,0.39,0.39,0.83,0.49,1.32s0.2,1.09,0.29,1.81c0.1,0.72,0.15,1.6,0.15,2.64c0,1.11-0.05,2.07-0.15,2.88
		c-0.1,0.81-0.26,1.48-0.49,2c-0.23,0.52-0.5,0.9-0.83,1.12c-0.33,0.23-0.68,0.34-1.07,0.34c-0.59,0-1.43-0.36-2.54-1.07
		c-1.11-0.72-2.54-1.48-4.3-2.29c-1.76-0.81-3.83-1.58-6.2-2.29c-2.38-0.72-5.09-1.07-8.15-1.07c-2.73,0-5.14,0.31-7.23,0.93
		c-2.08,0.62-3.79,1.5-5.13,2.64c-1.33,1.14-2.34,2.49-3.03,4.05s-1.03,3.26-1.03,5.08c0,2.54,0.65,4.67,1.95,6.4
		c1.3,1.73,2.99,3.24,5.08,4.54c2.08,1.3,4.46,2.48,7.13,3.52c2.67,1.04,5.39,2.12,8.15,3.22c2.77,1.11,5.5,2.34,8.2,3.71
		c2.7,1.37,5.09,3.03,7.18,4.98c2.08,1.95,3.76,4.3,5.03,7.03S1974.62,195.31,1974.62,199.08z"/>
	<path class="st2" d="M598.1,384.47c0,1.5-0.26,2.83-0.78,4c-0.52,1.17-1.22,2.15-2.1,2.93s-1.92,1.35-3.13,1.71
		c-1.21,0.36-2.43,0.54-3.66,0.54h-10.94c-2.28,0-4.25-0.23-5.91-0.68c-1.66-0.46-3.19-1.29-4.59-2.49c-1.4-1.2-2.75-2.83-4.05-4.88
		c-1.3-2.05-2.77-4.7-4.39-7.96l-31.45-59.08c-1.82-3.52-3.68-7.31-5.57-11.38c-1.89-4.07-3.58-8.02-5.08-11.87h-0.2
		c0.26,4.69,0.45,9.36,0.59,14.01c0.13,4.66,0.2,9.46,0.2,14.4v66.11c0,0.65-0.18,1.24-0.54,1.76c-0.36,0.52-0.98,0.96-1.86,1.32
		c-0.88,0.36-2.07,0.63-3.56,0.83c-1.5,0.2-3.42,0.29-5.76,0.29c-2.28,0-4.17-0.1-5.66-0.29c-1.5-0.2-2.67-0.47-3.52-0.83
		c-0.85-0.36-1.43-0.8-1.76-1.32c-0.33-0.52-0.49-1.11-0.49-1.76V276.26c0-3.06,0.89-5.35,2.69-6.88c1.79-1.53,3.99-2.29,6.59-2.29
		h13.77c2.47,0,4.56,0.21,6.25,0.63c1.69,0.42,3.21,1.12,4.54,2.1c1.33,0.98,2.59,2.33,3.76,4.05c1.17,1.73,2.38,3.86,3.61,6.4
		l24.61,46.19c1.43,2.8,2.85,5.55,4.25,8.25c1.4,2.7,2.75,5.4,4.05,8.11c1.3,2.7,2.57,5.36,3.81,7.96c1.24,2.6,2.44,5.21,3.61,7.81
		h0.1c-0.2-4.56-0.34-9.31-0.44-14.26c-0.1-4.95-0.15-9.67-0.15-14.16v-59.28c0-0.65,0.2-1.24,0.59-1.76
		c0.39-0.52,1.04-0.98,1.95-1.37c0.91-0.39,2.11-0.67,3.61-0.83c1.5-0.16,3.42-0.24,5.76-0.24c2.21,0,4.07,0.08,5.57,0.24
		c1.5,0.16,2.65,0.44,3.47,0.83c0.81,0.39,1.38,0.85,1.71,1.37c0.33,0.52,0.49,1.11,0.49,1.76V384.47z"/>
	<path class="st2" d="M703.04,344.04c0,3-0.67,5.21-2,6.64c-1.33,1.43-3.17,2.15-5.52,2.15h-53.03c0,3.71,0.44,7.08,1.32,10.11
		s2.28,5.6,4.2,7.71c1.92,2.12,4.39,3.73,7.42,4.83c3.03,1.11,6.66,1.66,10.89,1.66c4.3,0,8.07-0.31,11.33-0.93
		c3.25-0.62,6.07-1.3,8.45-2.05c2.38-0.75,4.35-1.43,5.91-2.05c1.56-0.62,2.83-0.93,3.81-0.93c0.59,0,1.07,0.11,1.46,0.34
		c0.39,0.23,0.72,0.63,0.98,1.22c0.26,0.59,0.44,1.42,0.54,2.49s0.15,2.43,0.15,4.05c0,1.43-0.03,2.65-0.1,3.66
		c-0.07,1.01-0.16,1.87-0.29,2.59c-0.13,0.72-0.33,1.32-0.59,1.81c-0.26,0.49-0.6,0.96-1.03,1.42c-0.42,0.46-1.58,1.07-3.47,1.86
		c-1.89,0.78-4.3,1.55-7.23,2.29s-6.28,1.4-10.06,1.95c-3.78,0.55-7.81,0.83-12.11,0.83c-7.75,0-14.54-0.98-20.36-2.93
		c-5.83-1.95-10.69-4.92-14.6-8.89c-3.91-3.97-6.82-8.98-8.74-15.04c-1.92-6.05-2.88-13.15-2.88-21.29c0-7.75,1.01-14.73,3.03-20.95
		c2.02-6.22,4.95-11.49,8.79-15.82c3.84-4.33,8.51-7.63,14.01-9.91c5.5-2.28,11.7-3.42,18.6-3.42c7.29,0,13.53,1.07,18.7,3.22
		s9.42,5.13,12.74,8.94s5.76,8.32,7.32,13.53c1.56,5.21,2.34,10.87,2.34,16.99V344.04z M679.21,337.01
		c0.2-6.9-1.19-12.32-4.15-16.26c-2.96-3.94-7.54-5.91-13.72-5.91c-3.13,0-5.84,0.59-8.15,1.76c-2.31,1.17-4.23,2.75-5.76,4.74
		c-1.53,1.99-2.7,4.33-3.52,7.03c-0.81,2.7-1.29,5.58-1.42,8.64H679.21z"/>
	<path class="st2" d="M771.85,381.54c0,2.87-0.18,5.06-0.54,6.59c-0.36,1.53-0.83,2.6-1.42,3.22c-0.59,0.62-1.45,1.17-2.59,1.66
		c-1.14,0.49-2.48,0.91-4,1.27c-1.53,0.36-3.19,0.63-4.98,0.83c-1.79,0.2-3.6,0.29-5.42,0.29c-4.88,0-9.12-0.62-12.7-1.86
		c-3.58-1.24-6.54-3.14-8.89-5.71c-2.34-2.57-4.07-5.81-5.18-9.72c-1.11-3.91-1.66-8.53-1.66-13.87v-44.63h-10.45
		c-1.24,0-2.18-0.76-2.83-2.29c-0.65-1.53-0.98-4.08-0.98-7.67c0-1.89,0.08-3.48,0.24-4.79c0.16-1.3,0.41-2.33,0.73-3.08
		c0.33-0.75,0.73-1.29,1.22-1.61c0.49-0.33,1.06-0.49,1.71-0.49h10.35v-19.43c0-0.65,0.18-1.24,0.54-1.76
		c0.36-0.52,1.01-0.96,1.95-1.32c0.94-0.36,2.21-0.62,3.81-0.78c1.59-0.16,3.56-0.24,5.91-0.24c2.41,0,4.41,0.08,6.01,0.24
		c1.59,0.16,2.85,0.42,3.76,0.78c0.91,0.36,1.56,0.8,1.95,1.32c0.39,0.52,0.59,1.11,0.59,1.76v19.43h18.95
		c0.65,0,1.22,0.16,1.71,0.49c0.49,0.33,0.89,0.86,1.22,1.61c0.33,0.75,0.57,1.77,0.73,3.08c0.16,1.3,0.24,2.9,0.24,4.79
		c0,3.58-0.33,6.14-0.98,7.67c-0.65,1.53-1.6,2.29-2.83,2.29H749v40.92c0,4.75,0.75,8.32,2.25,10.69c1.5,2.38,4.17,3.56,8.01,3.56
		c1.3,0,2.47-0.11,3.52-0.34c1.04-0.23,1.97-0.49,2.78-0.78c0.81-0.29,1.5-0.55,2.05-0.78c0.55-0.23,1.06-0.34,1.51-0.34
		c0.39,0,0.76,0.11,1.12,0.34c0.36,0.23,0.63,0.68,0.83,1.37s0.37,1.61,0.54,2.78C771.77,378.22,771.85,379.71,771.85,381.54z"/>
	<path class="st2" d="M921.33,302.83c0,0.72-0.1,1.6-0.29,2.64c-0.2,1.04-0.55,2.54-1.07,4.49l-23.24,78.81
		c-0.33,1.11-0.75,2-1.27,2.69c-0.52,0.68-1.32,1.22-2.39,1.61s-2.6,0.65-4.59,0.78c-1.99,0.13-4.57,0.2-7.76,0.2
		c-3.19,0-5.8-0.08-7.81-0.24c-2.02-0.16-3.6-0.44-4.74-0.83c-1.14-0.39-1.97-0.93-2.49-1.61c-0.52-0.68-0.91-1.55-1.17-2.59
		l-14.65-52.93l-0.2-0.88l-0.2,0.88l-13.48,52.93c-0.26,1.11-0.63,2-1.12,2.69s-1.32,1.22-2.49,1.61s-2.77,0.65-4.79,0.78
		c-2.02,0.13-4.62,0.2-7.81,0.2c-3.26,0-5.88-0.08-7.86-0.24c-1.99-0.16-3.55-0.44-4.69-0.83c-1.14-0.39-1.97-0.93-2.49-1.61
		c-0.52-0.68-0.91-1.55-1.17-2.59l-23.05-78.81c-0.59-1.89-0.96-3.37-1.12-4.44c-0.16-1.07-0.24-1.97-0.24-2.69
		c0-0.65,0.18-1.22,0.54-1.71c0.36-0.49,1.01-0.88,1.95-1.17c0.94-0.29,2.21-0.5,3.81-0.63c1.59-0.13,3.6-0.2,6.01-0.2
		c2.6,0,4.72,0.07,6.35,0.2c1.63,0.13,2.9,0.36,3.81,0.68c0.91,0.33,1.55,0.77,1.9,1.32c0.36,0.55,0.63,1.22,0.83,2l17.29,63.96
		l0.2,1.17l0.2-1.17l16.21-63.96c0.2-0.78,0.5-1.45,0.93-2c0.42-0.55,1.06-0.99,1.9-1.32c0.85-0.33,2.03-0.55,3.56-0.68
		c1.53-0.13,3.5-0.2,5.91-0.2c2.41,0,4.36,0.08,5.86,0.24c1.5,0.16,2.69,0.39,3.56,0.68s1.5,0.68,1.86,1.17
		c0.36,0.49,0.63,1.06,0.83,1.71l17.38,64.45l0.29,1.07l0.2-1.17l16.6-63.96c0.13-0.78,0.39-1.45,0.78-2
		c0.39-0.55,1.04-0.99,1.95-1.32c0.91-0.33,2.15-0.55,3.71-0.68c1.56-0.13,3.55-0.2,5.96-0.2c2.41,0,4.38,0.07,5.91,0.2
		c1.53,0.13,2.73,0.34,3.61,0.63s1.48,0.68,1.81,1.17C921.16,301.6,921.33,302.18,921.33,302.83z"/>
	<path class="st2" d="M1021.87,345.7c0,7.42-0.98,14.19-2.93,20.31c-1.95,6.12-4.92,11.39-8.89,15.82
		c-3.97,4.43-8.95,7.85-14.94,10.25s-12.99,3.61-21,3.61c-7.75,0-14.49-1.07-20.21-3.22c-5.73-2.15-10.48-5.27-14.26-9.38
		c-3.78-4.1-6.58-9.15-8.4-15.14c-1.82-5.99-2.73-12.83-2.73-20.51c0-7.42,0.99-14.21,2.98-20.36c1.99-6.15,4.96-11.43,8.94-15.82
		c3.97-4.39,8.94-7.8,14.89-10.21c5.96-2.41,12.94-3.61,20.95-3.61c7.81,0,14.58,1.06,20.31,3.17c5.73,2.12,10.46,5.22,14.21,9.33
		s6.53,9.15,8.35,15.14C1020.96,331.08,1021.87,337.95,1021.87,345.7z M996.58,346.67c0-4.3-0.34-8.25-1.03-11.87
		s-1.84-6.75-3.47-9.42c-1.63-2.67-3.79-4.75-6.49-6.25c-2.7-1.5-6.1-2.25-10.21-2.25c-3.65,0-6.84,0.67-9.57,2
		c-2.73,1.33-4.98,3.29-6.74,5.86c-1.76,2.57-3.08,5.66-3.96,9.28s-1.32,7.73-1.32,12.35c0,4.3,0.36,8.25,1.07,11.87
		c0.72,3.61,1.87,6.75,3.47,9.42c1.6,2.67,3.76,4.74,6.49,6.2s6.12,2.2,10.16,2.2c3.71,0,6.93-0.67,9.67-2
		c2.73-1.33,4.98-3.27,6.74-5.81s3.06-5.62,3.91-9.23S996.58,351.3,996.58,346.67z"/>
	<path class="st2" d="M1095.66,311.13c0,2.34-0.07,4.26-0.2,5.76c-0.13,1.5-0.33,2.67-0.59,3.52c-0.26,0.85-0.6,1.43-1.03,1.76
		c-0.42,0.33-0.96,0.49-1.61,0.49c-0.52,0-1.11-0.11-1.76-0.34c-0.65-0.23-1.38-0.47-2.2-0.73c-0.81-0.26-1.71-0.5-2.69-0.73
		c-0.98-0.23-2.05-0.34-3.22-0.34c-1.37,0-2.73,0.28-4.1,0.83c-1.37,0.55-2.78,1.42-4.25,2.59s-3,2.73-4.59,4.69
		c-1.6,1.95-3.3,4.36-5.13,7.23v54.3c0,0.65-0.2,1.22-0.59,1.71s-1.06,0.9-2,1.22c-0.94,0.33-2.2,0.57-3.76,0.73
		c-1.56,0.16-3.55,0.24-5.96,0.24c-2.41,0-4.39-0.08-5.96-0.24c-1.56-0.16-2.82-0.41-3.76-0.73c-0.94-0.33-1.61-0.73-2-1.22
		s-0.59-1.06-0.59-1.71v-87.11c0-0.65,0.16-1.22,0.49-1.71c0.33-0.49,0.91-0.89,1.76-1.22c0.85-0.33,1.94-0.57,3.27-0.73
		c1.33-0.16,3.01-0.24,5.03-0.24c2.08,0,3.81,0.08,5.18,0.24c1.37,0.16,2.42,0.41,3.17,0.73c0.75,0.33,1.29,0.73,1.61,1.22
		c0.33,0.49,0.49,1.06,0.49,1.71v10.84c2.28-3.25,4.43-5.94,6.45-8.06c2.02-2.12,3.94-3.79,5.76-5.03c1.82-1.24,3.65-2.1,5.47-2.59
		c1.82-0.49,3.65-0.73,5.47-0.73c0.85,0,1.76,0.05,2.73,0.15s1.99,0.26,3.03,0.49c1.04,0.23,1.95,0.49,2.73,0.78s1.35,0.6,1.71,0.93
		c0.36,0.33,0.62,0.68,0.78,1.07c0.16,0.39,0.31,0.93,0.44,1.61c0.13,0.68,0.23,1.71,0.29,3.08
		C1095.63,306.93,1095.66,308.78,1095.66,311.13z"/>
	<path class="st2" d="M1190.16,390.23c0,0.65-0.18,1.22-0.54,1.71c-0.36,0.49-1.01,0.88-1.95,1.17c-0.94,0.29-2.23,0.52-3.86,0.68
		c-1.63,0.16-3.74,0.24-6.35,0.24c-2.67,0-4.83-0.07-6.49-0.2c-1.66-0.13-3.03-0.34-4.1-0.63s-1.9-0.7-2.49-1.22
		c-0.59-0.52-1.11-1.2-1.56-2.05l-29-45.9v46.09c0,0.65-0.2,1.22-0.59,1.71s-1.06,0.9-2,1.22c-0.94,0.33-2.2,0.57-3.76,0.73
		c-1.56,0.16-3.55,0.24-5.96,0.24c-2.41,0-4.39-0.08-5.96-0.24c-1.56-0.16-2.82-0.41-3.76-0.73c-0.94-0.33-1.61-0.73-2-1.22
		s-0.59-1.06-0.59-1.71V261.71c0-0.65,0.2-1.24,0.59-1.76c0.39-0.52,1.06-0.96,2-1.32c0.94-0.36,2.2-0.63,3.76-0.83
		s3.55-0.29,5.96-0.29c2.41,0,4.39,0.1,5.96,0.29s2.82,0.47,3.76,0.83c0.94,0.36,1.61,0.8,2,1.32c0.39,0.52,0.59,1.11,0.59,1.76
		v76.46l25.78-34.67c0.52-0.78,1.11-1.46,1.76-2.05c0.65-0.59,1.51-1.04,2.59-1.37c1.07-0.33,2.41-0.57,4-0.73
		c1.59-0.16,3.63-0.24,6.1-0.24c2.41,0,4.44,0.08,6.1,0.24c1.66,0.16,2.99,0.41,4,0.73c1.01,0.33,1.71,0.73,2.1,1.22
		s0.59,1.09,0.59,1.81c0,0.98-0.24,2.02-0.73,3.13c-0.49,1.11-1.22,2.28-2.2,3.52l-25.49,28.91l29.49,45.61
		c0.78,1.3,1.35,2.43,1.71,3.37C1189.98,388.58,1190.16,389.45,1190.16,390.23z"/>
</g>
<rect x="245.19" y="101.32" transform="matrix(0.6728 -0.7398 0.7398 0.6728 -95.0147 265.5197)" class="st1" width="15" height="277.72"/>
<rect x="149.96" y="139.25" class="st1" width="205.46" height="15"/>
<rect x="347.92" y="148.27" class="st1" width="15" height="191.64"/>
<rect x="144.08" y="147.49" class="st1" width="15" height="193.19"/>
<rect x="153.53" y="327.62" class="st1" width="201.89" height="15"/>
<circle class="st3" cx="149.96" cy="148.27" r="71.5"/>
<circle class="st3" cx="355.42" cy="335.12" r="71.5"/>
<circle class="st4" cx="355.42" cy="148.27" r="71.5"/>
<circle class="st4" cx="149.96" cy="335.12" r="71.5"/>
</svg>
